<?xml version="1.0"?>
<svg width="748" height="807" viewBox="0 0 7480 8070" xmlns="http://www.w3.org/2000/svg" xmlns:xlink="http://www.w3.org/1999/xlink">
<path d="m3727 7967c1483-8.8 3136-1117 3064-3650 38.1-1039 56.6-1579 107.8-2618 40.8-385.2 211-518 455.5-500 65.7 2 71.9-29.2 43.2-60.4-144.5-134.5-308.5-335.8-669.1-813.1-8.3-9.8-29-9.1-27.8-.4 19 166.9-68 212.2-246.9 152.8-883.4-276.4-1797-413.6-2727-413.6-929.5 0-1844 137.2-2727 413.6-178.8 59.4-265.8 14.1-246.9-152.8 1.2-8.8-13.9-9.5-22.2.4-310 477.3-499.1 693.3-651.4 827.8-18.7 21.2-21.5 49.5 28.3 48.5 244.5-18.1 406.2 111.9 447 497.2 70.8 1039 102.7 1579 173.5 2618 .8 265.8 20 515.2 55.2 748.9 130.1 1915 1870 2901 2943 2901z"/>
<path d="m3727 7812c1529 0 2806-1190 2909-3064 28.5-1056 64.5-2113 92.9-3169 4.1-317.8 130.6-507.2 340.8-608.8-78.5-166.3-184.2-305.4-293-441.4-21.4-18.5-47.4-30.1-61.4 6.9-35.2 52-115.4 45.2-216 11.7-917.6-265.5-1791-394.5-2772-394.5-981.8 0-1855 129-2772 394.5-100.6 33.5-180.8 40.3-216-11.7-14-37-40-25.4-61.4-6.9-108.8 136-214.6 275.1-293 441.4 210.3 101.6 336.8 291 340.8 608.8 28.5 1056 64.4 2113 92.9 3169 15.5 1891 1380 3064 2909 3064z" fill="#fff"/>
<use transform="translate(18.2 31.8)" xlink:href="#a"/>
<use transform="translate(9.1 15.9)" xlink:href="#a"/>
<path id="a" d="m4696 5976v-1613h1838v-1963l-1838 0 0-1999h-1963v1999h-1838v1963h1838v1613c0 208.5-158.9 405.4-336.9 518.1 653.4 222.3 1053 648.8 1318 1158 296.8-520.9 733.1-924.8 1318-1158-144.1-115.7-336.9-306.7-336.9-518.1z" fill="#d22" stroke="#000" stroke-linejoin="round" stroke-width="50"/>
<path d="m6508 3381h-5590m2796-2955v7144" fill="none" stroke="#fff" stroke-width="30"/>
<path d="m7070 970.1c-78.5-166.3-184.2-305.4-293-441.4-21.4-18.5-47.4-30.1-61.4 6.9-35.2 52-115.4 45.2-216 11.7-917.6-265.5-1791-394.5-2772-394.5-981.8 0-1855 129-2772 394.5-100.6 33.5-180.8 40.3-216-11.7-14-37-40-25.4-61.4-6.9-108.8 136-214.6 275.1-293 441.4 883.2-502.4 2228-755.4 3343-755.4s2339 253.1 3343 755.4z" fill="#fff"/>
<path d="m384.5 970.1c883.2-502.4 2228-755.4 3343-755.4s2339 253.1 3343 755.4" fill="none" stroke="#000" stroke-linecap="round" stroke-linejoin="round" stroke-width="19.7"/>
<use fill="#928" transform="translate(29.5 30.4)" xlink:href="#b"/>
<path id="b" d="m2998 2303c173.3 206.1 385.2 467.7 483.5 673.8-105.9 77.2-223.8 95.5-329.6 126.7 79.4 128.6 136.1 238.3 192 347.3 71.1-53.2 148-107.7 254.8-168.9 154 376.7 337.6 950.2 136.8 1297-217.5-275.6-294.2-599.7-300.4-1011l-495.6 253.5c36.3 625.8 255.4 1163 676.5 1531 240.6-350.4 390.4-560.9 714.7-830.3 40.3-319.3 6.1-920.2-217.7-1502 86.2-40.7 193.3-86.1 351.3-142.7-66.9-96.4-135.7-215-175.1-338.1-94 79.3-198.2 144.6-310.4 174.7-75-178.9-188.2-379.3-211.5-415 270.1 126.2 689.5-12.1 742.8-382.9-399.3 99.5-589.7-108.4-757.2-315-193.6 327.2-470 527.4-754.8 701.8z" fill="#fff" stroke="#000" stroke-width="50"/>
<path d="m3365 3519l-29.4-30.3 29.4-40.3zm94.6 8.4l29.4 30.3-29.4 40.3zm842.2-1031l29.4 30.3-29.4 40.3zm238.5-613.8l28.9 30.5-41.7 19.5z"/>
</svg>
